<svg width="40" height="40" xmlns="http://www.w3.org/2000/svg">

 <g>
  <title>background</title>
  <rect fill="none" id="canvas_background" height="40" width="40" y="-1" x="-1"/>
 </g>
 <g>
  <title>Layer 1</title>
  <path fill="#00bfbf" id="svg_2" d="m9,2l-5,0c-1.103,0 -2,0.896 -2,2l0,5c0,1.104 0.897,2 2,2l5,0c1.103,0 2,-0.896 2,-2l0,-5c0,-1.104 -0.897,-2 -2,-2zm0,7l-5,0l0,-5l5,0l0,5z"/>
  <path fill="#00bfbf" id="svg_3" d="m20,2l-5,0c-1.104,0 -2,0.896 -2,2l0,5c0,1.104 0.896,2 2,2l5,0c1.104,0 2,-0.896 2,-2l0,-5c0,-1.104 -0.896,-2 -2,-2zm0,7l-5,0l0,-5l5,0l0,5z"/>
  <path fill="#00bfbf" id="svg_4" d="m9,13l-5,0c-1.103,0 -2,0.896 -2,2l0,5c0,1.104 0.897,2 2,2l5,0c1.103,0 2,-0.896 2,-2l0,-5c0,-1.104 -0.897,-2 -2,-2zm0,7l-5,0l0,-5l5,0l0,5z"/>
  <path fill="#00bfbf" id="svg_5" d="m20,13l-5,0c-1.104,0 -2,0.896 -2,2l0,5c0,1.104 0.896,2 2,2l5,0c1.104,0 2,-0.896 2,-2l0,-5c0,-1.104 -0.896,-2 -2,-2zm0,7l-5,0l0,-5l5,0l0,5z"/>
 </g>
</svg>