<svg width="32" height="32" xmlns="http://www.w3.org/2000/svg">
 <title/>

 <g>
  <title>background</title>
  <rect fill="none" id="canvas_background" height="402" width="582" y="-1" x="-1"/>
 </g>
 <g>
  <title>Layer 1</title>
  <path stroke="null" fill="#999999" id="svg_1" d="m30.59034,13.495031l-10.203565,0l0,-1.053653a1.020357,1.053653 0 0 0 -2.040713,0l0,1.053653l-1.020357,0l0,-4.741438a0.510178,0.526826 0 0 1 1.020357,0l0,0.526826a1.020357,1.053653 0 0 0 2.040713,0l0,-0.526826a2.550891,2.634132 0 0 0 -5.101783,0l0,4.741438l-1.020357,0l0,-1.053653a1.020357,1.053653 0 0 0 -2.040713,0l0,1.053653l-10.203565,0a1.020357,1.053653 0 0 0 -1.020357,1.053653l0,3.160959a1.020357,1.053653 0 0 0 1.020357,1.053653l0,11.590183a1.020357,1.053653 0 0 0 1.020357,1.053653l26.52927,0a1.020357,1.053653 0 0 0 1.020357,-1.053653l0,-11.590183a1.020357,1.053653 0 0 0 1.020357,-1.053653l0,-3.160959a1.020357,1.053653 0 0 0 -1.020357,-1.053653zm-27.549626,2.107306l26.52927,0l0,1.053653l-26.52927,0l0,-1.053653zm1.020357,4.214612l11.223922,0l0,9.482877l-11.223922,0l0,-9.482877zm24.488557,0l-11.223922,0l0,-1.053653l11.223922,0l0,1.053653z"/>
  <path fill="#999999" id="svg_2" d="m13,21a1,1 0 0 0 -1,1l0,2a1,1 0 0 0 2,0l0,-2a1,1 0 0 0 -1,-1z"/>
  <path fill="#999999" id="svg_3" d="m19,25a1,1 0 0 0 1,-1l0,-2a1,1 0 0 0 -2,0l0,2a1,1 0 0 0 1,1z"/>
 </g>
</svg>