<svg width="48" height="48" xmlns="http://www.w3.org/2000/svg">
 <defs>
  <filter height="200%" width="200%" y="-50%" x="-50%" id="svg_4_blur">
   <feGaussianBlur stdDeviation="0" in="SourceGraphic"/>
  </filter>
 </defs>
 <g>
  <title>background</title>
  <rect fill="none" id="canvas_background" height="402" width="582" y="-1" x="-1"/>
 </g>
 <g>
  <title>Layer 1</title>
  <path stroke="null" id="svg_2" fill="#3f9e9e" d="m14.220946,19.787316l0,-0.682472l-5.78051,0l0,0.682472c0,0.754396 -0.766525,1.364402 -1.712291,1.364402l-1.412199,0l0,1.363321l12.028811,0l0,-1.363321l-1.41152,0c-0.945087,0 -1.712291,-0.610006 -1.712291,-1.364402z"/>
  <path stroke="null" id="svg_3" fill="#3f9e9e" d="m19.748888,2.731205l-17.138925,0l-0.008013,0l-1.027614,0l0,1.127884c-0.002003,0.030688 -0.008013,0.060431 -0.008013,0.092063l0,12.457714l0,0.73414l0,1.219947l1.035627,0l0.69389,0l16.059228,0l0.393819,0l1.027214,0l0,-1.127884c0.002003,-0.030215 0.008013,-0.060903 0.008013,-0.092063l0,-0.156742l0,-13.035111l0,-1.219947l-1.035226,0zm-8.573469,14.905633c-0.278838,0 -0.505194,-0.266273 -0.505194,-0.59581s0.226356,-0.59581 0.505194,-0.59581c0.279239,0 0.505594,0.266273 0.505594,0.59581s-0.226356,0.59581 -0.505594,0.59581zm-8.565456,-1.80537l0,-11.993624l17.138925,0l0,11.993624l-17.138925,0z"/>
  <path filter="url(#svg_4_blur)" stroke="null" id="svg_4" fill="#3f9e9e" d="m50.183812,7.796249l-34.83183,0.00262l-0.005,0l-0.64111,0l0,1.44129c-0.00125,0.03922 -0.005,0.07722 -0.005,0.11765l0,15.91943l0,0.93814l0,1.55894l0.64611,0l0.4329,0l10.01904,0l0.24569,0l0.64087,0l0,-1.4413c0.00125,-0.03861 0.00499,-0.07782 0.00499,-0.11764l0,-0.2003l0,-16.65727l0,-1.55894m-11.33849,16.74052l0,-15.32637l10.69263,0l0,15.32637l-10.69263,0z"/>
  <ellipse ry="1.085927" rx="0.982505" id="svg_5" cy="26.016722" cx="20.79393" stroke-opacity="null" stroke-width="null" stroke="null" fill="#ffffff"/>
  <ellipse id="svg_7" cy="37.341389" cx="9.882949" stroke-opacity="null" stroke-width="null" stroke="null" fill="#ffffff"/>
  <ellipse stroke="null" ry="0.775662" rx="0.930795" id="svg_11" cy="26.120144" cx="20.742219" stroke-opacity="null" stroke-width="null" fill="#ffffff"/>
 </g>
</svg>