<svg height="512pt" viewBox="0 0 512 512" width="512pt" xmlns="http://www.w3.org/2000/svg"><path d="m432.71875 0c-79.371094 0-147.625 48.480469-176.71875 117.382812-29.09375-68.902343-97.351562-117.382812-176.734375-117.382812-8.28125 0-14.992187 6.714844-14.992187 15s6.726562 15 15.007812 15c89.171875 0 161.71875 72.546875 161.71875 161.71875v.015625c0 8.28125 6.714844 14.992187 15 14.992187s15-6.726562 15-15.007812c0-89.171875 72.546875-161.71875 161.734375-161.71875 8.28125 0 14.992187-6.714844 14.992187-15s-6.726562-15-15.007812-15zm0 0" fill="#cfdbe5"/><path d="m432.71875 0c-79.371094 0-147.625 48.480469-176.71875 117.382812v89.34375c8.285156 0 15-6.726562 15-15.007812 0-89.171875 72.546875-161.71875 161.734375-161.71875 8.28125 0 14.992187-6.714844 14.992187-15s-6.726562-15-15.007812-15zm0 0" fill="#b4c1cf"/><path d="m368.46875 512c-52.570312 0-95.335938-42.765625-95.335938-95.332031v-64.269531c0-8.28125 6.71875-15 15-15h88.367188c48.214844 0 87.300781 39.003906 87.300781 87.300781 0 40.535156-28.902343 87.300781-95.332031 87.300781zm0 0" fill="#0084ff"/><path d="m48.199219 424.699219c0-48.296875 39.085937-87.300781 87.300781-87.300781h88.367188c8.285156 0 15 6.71875 15 15v64.269531c0 52.566406-42.765626 95.332031-95.332032 95.332031-66.433594 0-95.335937-46.765625-95.335937-87.300781zm0 0" fill="#1d9cfd"/><path d="m320.265625 367.398438h-32.132813c-8.28125 0-15-6.714844-15-15v-112.464844c0-88.003906 71.597657-159.601563 159.601563-159.601563h64.265625c8.285156 0 15 6.71875 15 15v80.332031c0 105.726563-86.011719 191.734376-191.734375 191.734376zm0 0" fill="#1d9cfd"/><path d="m0 175.667969v-80.332031c0-8.285157 6.714844-15 15-15h64.265625c88.003906 0 159.601563 71.59375 159.601563 159.597656v112.464844c0 8.285156-6.714844 15-15 15h-32.132813c-105.722656 0-191.734375-86.007813-191.734375-191.730469zm0 0" fill="#3ab4fb"/><path d="m256 463.800781c-25.988281 0-47.132812-21.144531-47.132812-47.132812v-192.800781c0-25.988282 21.144531-47.132813 47.132812-47.132813s47.132812 21.144531 47.132812 47.132813v192.800781c0 25.988281-21.144531 47.132812-47.132812 47.132812zm0 0" fill="#0084ff"/><path d="m303.128906 223.871094v192.800781c0 25.988281-21.140625 47.128906-47.128906 47.128906v-287.070312c25.988281 0 47.128906 21.148437 47.128906 47.140625zm0 0" fill="#006cff"/></svg>