<svg id="Capa_1" enable-background="new 0 0 512 512" height="512" viewBox="0 0 512 512" width="512" xmlns="http://www.w3.org/2000/svg"><g><path d="m255.403 182.5v228.544l102.981-113.36z" fill="#aef5f5"/><path d="m255.403 182.5 182.597 114.272v98.519l-94.721 49.119z" fill="#e1f7f7"/><path d="m255.403 182.5 19.736 58.821 121.654 76.134v98.519l41.207-20.683v-98.519z" fill="#cdf7f7"/><path d="m423.542 67.59-168.139 114.91 155.471 97.296 101.126-121.594v-90.612z" fill="#aef5f5"/><path d="m470.793 67.59v90.612l-87.02 104.633 27.101 16.961 101.126-121.594v-90.612z" fill="#92f0f0"/><path d="m255.403 182.5 56.014 166.809 112.125-281.719z" fill="#74e0e0"/><path d="m255.403 182.5v228.544l-103.28-113.36z" fill="#74e0e0"/><path d="m255.403 182.5-182.896 114.272v98.519l94.721 49.119z" fill="#e1f7f7"/><path d="m88.458 67.59h-88.458v90.612l100.63 120.998 154.773-96.7z" fill="#74e0e0"/><path d="m255.403 182.5-56.314 166.809-110.631-281.719z" fill="#aef5f5"/></g></svg>